<?xml version="1.0" encoding="UTF-8" standalone="no"?>
<!-- Created with Inkscape (http://www.inkscape.org/) -->

<svg
   xmlns:dc="http://purl.org/dc/elements/1.1/"
   xmlns:cc="http://creativecommons.org/ns#"
   xmlns:rdf="http://www.w3.org/1999/02/22-rdf-syntax-ns#"
   xmlns:svg="http://www.w3.org/2000/svg"
   xmlns="http://www.w3.org/2000/svg"
   xmlns:sodipodi="http://sodipodi.sourceforge.net/DTD/sodipodi-0.dtd"
   xmlns:inkscape="http://www.inkscape.org/namespaces/inkscape"
   width="50"
   height="40"
   viewBox="0 0 13.229166 10.583334"
   version="1.1"
   id="svg8"
   inkscape:version="0.92.4 (5da689c313, 2019-01-14)"
   sodipodi:docname="opand.svg">
  <defs
     id="defs2" />
  <sodipodi:namedview
     id="base"
     pagecolor="#ffffff"
     bordercolor="#666666"
     borderopacity="1.0"
     inkscape:pageopacity="0.0"
     inkscape:pageshadow="2"
     inkscape:zoom="11.83"
     inkscape:cx="11.094675"
     inkscape:cy="20"
     inkscape:document-units="mm"
     inkscape:current-layer="layer1"
     showgrid="false"
     units="px"
     inkscape:window-width="1918"
     inkscape:window-height="2071"
     inkscape:window-x="1912"
     inkscape:window-y="0"
     inkscape:window-maximized="0" />
  <metadata
     id="metadata5">
    <rdf:RDF>
      <cc:Work
         rdf:about="">
        <dc:format>image/svg+xml</dc:format>
        <dc:type
           rdf:resource="http://purl.org/dc/dcmitype/StillImage" />
        <dc:title></dc:title>
      </cc:Work>
    </rdf:RDF>
  </metadata>
  <g
     inkscape:label="Layer 1"
     inkscape:groupmode="layer"
     id="layer1"
     transform="translate(0,-286.41665)">
    <path
       style="fill:#55b2c3;fill-opacity:1;stroke:#22728e;stroke-width:0.679;stroke-opacity:1;stroke-miterlimit:4;stroke-dasharray:none"
       d="m 1.0622921,287.26654 v 8.88355 h 6.6633725 c 2.4523514,0 4.4403734,-1.98865 4.4403714,-4.44178 -3e-6,-2.45312 -1.988024,-4.44177 -4.4403714,-4.44177 z"
       id="rect3713"
       inkscape:connector-curvature="0"
       sodipodi:nodetypes="ccsssc" />
    <g
       aria-label="AND
(&amp;&amp;)"
       style="font-style:normal;font-weight:normal;font-size:3.09890294px;line-height:1;font-family:sans-serif;letter-spacing:0px;word-spacing:0px;fill:#ffffff;fill-opacity:1;stroke:none;stroke-width:0.23241773"
       id="text4529"
       transform="translate(-0.42494365,0.02236546)">
      <path
         d="M 5.0630808,290.81055 4.954135,290.42016 H 4.2641449 l -0.1119721,0.39039 H 3.7829676 l 0.5855837,-1.97767 h 0.5205189 l 0.5855837,1.97767 z M 4.6136794,289.19603 4.35342,290.11602 h 0.5174925 z"
         style="font-style:normal;font-variant:normal;font-weight:bold;font-stretch:normal;line-height:1;font-family:Consolas;-inkscape-font-specification:'Consolas Bold';text-align:center;text-anchor:middle;fill:#ffffff;stroke-width:0.23241773"
         id="path4533"
         inkscape:connector-curvature="0" />
      <path
         d="M 6.6034535,290.81055 6.0738558,289.6303 5.96491,289.37609 v 0.82012 0.61434 H 5.6259675 v -1.97767 h 0.4569671 l 0.5401896,1.18781 0.095328,0.23151 v -0.87308 -0.54624 h 0.3389425 v 1.97767 z"
         style="font-style:normal;font-variant:normal;font-weight:bold;font-stretch:normal;line-height:1;font-family:Consolas;-inkscape-font-specification:'Consolas Bold';text-align:center;text-anchor:middle;fill:#ffffff;stroke-width:0.23241773"
         id="path4535"
         inkscape:connector-curvature="0" />
      <path
         d="m 8.8141455,289.79675 q 0,0.22999 -0.057499,0.41762 -0.055986,0.18763 -0.177037,0.32079 -0.1195377,0.13164 -0.3071666,0.20427 -0.1876289,0.0711 -0.4494015,0.0711 H 7.32068 v -1.97767 h 0.5855837 q 0.2269705,0 0.3964417,0.0575 0.1709844,0.056 0.2844696,0.17401 0.1134852,0.11802 0.1694713,0.2996 0.057499,0.18158 0.057499,0.43276 z m -0.399468,0.0242 q 0,-0.1604 -0.025723,-0.28599 -0.025723,-0.12559 -0.087762,-0.21184 -0.060526,-0.0878 -0.1634187,-0.13315 -0.1028933,-0.0454 -0.25572,-0.0454 H 7.6929115 v 1.35426 h 0.1634187 q 0.2738777,0 0.4161125,-0.16342 0.1422348,-0.16342 0.1422348,-0.51446 z"
         style="font-style:normal;font-variant:normal;font-weight:bold;font-stretch:normal;line-height:1;font-family:Consolas;-inkscape-font-specification:'Consolas Bold';text-align:center;text-anchor:middle;fill:#ffffff;stroke-width:0.23241773"
         id="path4537"
         inkscape:connector-curvature="0" />
      <path
         d="m 4.0704635,294.68335 q -0.3676921,-0.31171 -0.5522947,-0.66881 -0.1830895,-0.3571 -0.1830895,-0.76867 0,-0.23 0.054473,-0.43427 0.054473,-0.20579 0.1528267,-0.38585 0.099867,-0.18007 0.2360493,-0.33743 0.1376954,-0.15888 0.3011141,-0.29658 l 0.2103259,0.21033 q -0.2950615,0.2648 -0.4433489,0.57197 -0.1482873,0.30716 -0.1482873,0.6461 0,0.34349 0.1482873,0.66124 0.1482874,0.31625 0.4433489,0.57802 z"
         style="font-style:normal;font-variant:normal;font-weight:bold;font-stretch:normal;line-height:1;font-family:Consolas;-inkscape-font-specification:'Consolas Bold';text-align:center;text-anchor:middle;fill:#ffffff;stroke-width:0.23241773"
         id="path4539"
         inkscape:connector-curvature="0" />
      <path
         d="m 6.2100381,293.01587 q 0,0.19217 -0.039342,0.35256 -0.039341,0.16039 -0.1149983,0.28901 l 0.322298,0.39039 H 5.9406998 L 5.8332672,293.9177 q -0.1028933,0.0817 -0.2284836,0.12408 -0.1255903,0.0408 -0.2678251,0.0408 -0.1573662,0 -0.2799302,-0.0393 -0.1225641,-0.0409 -0.2072997,-0.115 -0.084736,-0.0741 -0.1286166,-0.17855 -0.043881,-0.10592 -0.043881,-0.23453 0,-0.10895 0.02875,-0.19671 0.02875,-0.0878 0.07717,-0.15737 0.04842,-0.0711 0.1119721,-0.12559 0.063552,-0.056 0.1346691,-0.10289 l -0.030263,-0.0409 q -0.084736,-0.1044 -0.1316428,-0.21335 -0.045394,-0.11046 -0.045394,-0.21486 0,-0.10592 0.037828,-0.20276 0.037828,-0.0984 0.1104589,-0.1725 0.074144,-0.0757 0.1815764,-0.12105 0.1074326,-0.0454 0.2466412,-0.0454 0.1316428,0 0.2345361,0.0378 0.1028932,0.0363 0.1740106,0.0999 0.071117,0.062 0.1074327,0.14677 0.037828,0.0847 0.037828,0.18007 0,0.11802 -0.039341,0.2073 -0.039342,0.0878 -0.1044064,0.15585 -0.063552,0.0666 -0.1467742,0.11954 -0.081709,0.0514 -0.1679582,0.0999 l 0.33289,0.41006 q 0.021184,-0.0772 0.031776,-0.16795 0.010592,-0.0908 0.00757,-0.1952 z m -1.1681412,0.46756 q 0,0.0666 0.022697,0.12256 0.022697,0.0545 0.063552,0.0953 0.042368,0.0393 0.1013801,0.062 0.059012,0.0212 0.1316429,0.0212 0.080196,0 0.1513136,-0.0242 0.07263,-0.0242 0.1316428,-0.0756 L 5.209855,293.15205 q -0.075657,0.0636 -0.122564,0.14224 -0.045394,0.0772 -0.045394,0.18914 z m 0.5613735,-1.06525 q 0,-0.0393 -0.015131,-0.0772 -0.013618,-0.0393 -0.040855,-0.0681 -0.027236,-0.0303 -0.066578,-0.0484 -0.039341,-0.0182 -0.090788,-0.0182 -0.051447,0 -0.092301,0.0197 -0.040855,0.0182 -0.069604,0.0499 -0.027236,0.0318 -0.042368,0.0741 -0.013618,0.0424 -0.013618,0.0893 0,0.0817 0.039342,0.15585 0.039341,0.0726 0.1074326,0.15737 l 0.00303,0.006 q 0.057499,-0.0348 0.1089458,-0.0696 0.051447,-0.0363 0.089275,-0.0772 0.039341,-0.0408 0.060525,-0.0878 0.022697,-0.0484 0.022697,-0.10592 z"
         style="font-style:normal;font-variant:normal;font-weight:bold;font-stretch:normal;line-height:1;font-family:Consolas;-inkscape-font-specification:'Consolas Bold';text-align:center;text-anchor:middle;fill:#ffffff;stroke-width:0.23241773"
         id="path4541"
         inkscape:connector-curvature="0" />
      <path
         d="m 7.9168557,293.01587 q 0,0.19217 -0.039341,0.35256 -0.039342,0.16039 -0.1149984,0.28901 l 0.322298,0.39039 H 7.6475174 L 7.5400848,293.9177 q -0.1028933,0.0817 -0.2284836,0.12408 -0.1255903,0.0408 -0.2678251,0.0408 -0.1573662,0 -0.2799302,-0.0393 -0.122564,-0.0409 -0.2072997,-0.115 -0.084736,-0.0741 -0.1286165,-0.17855 -0.043881,-0.10592 -0.043881,-0.23453 0,-0.10895 0.02875,-0.19671 0.02875,-0.0878 0.07717,-0.15737 0.04842,-0.0711 0.111972,-0.12559 0.063552,-0.056 0.1346692,-0.10289 l -0.030263,-0.0409 q -0.084736,-0.1044 -0.1316428,-0.21335 -0.045394,-0.11046 -0.045394,-0.21486 0,-0.10592 0.037828,-0.20276 0.037828,-0.0984 0.1104589,-0.1725 0.074144,-0.0757 0.1815764,-0.12105 0.1074327,-0.0454 0.2466412,-0.0454 0.1316428,0 0.2345361,0.0378 0.1028933,0.0363 0.1740107,0.0999 0.071117,0.062 0.1074326,0.14677 0.037828,0.0847 0.037828,0.18007 0,0.11802 -0.039341,0.2073 -0.039341,0.0878 -0.1044064,0.15585 -0.063552,0.0666 -0.1467742,0.11954 -0.081709,0.0514 -0.1679581,0.0999 l 0.3328899,0.41006 q 0.021184,-0.0772 0.031776,-0.16795 0.010592,-0.0908 0.00757,-0.1952 z m -1.1681412,0.46756 q 0,0.0666 0.022697,0.12256 0.022697,0.0545 0.063552,0.0953 0.042368,0.0393 0.1013801,0.062 0.059012,0.0212 0.1316429,0.0212 0.080196,0 0.1513136,-0.0242 0.07263,-0.0242 0.1316429,-0.0756 l -0.4342701,-0.53263 q -0.075657,0.0636 -0.1225641,0.14224 -0.045394,0.0772 -0.045394,0.18914 z m 0.5613736,-1.06525 q 0,-0.0393 -0.015131,-0.0772 -0.013618,-0.0393 -0.040855,-0.0681 -0.027236,-0.0303 -0.066578,-0.0484 -0.039341,-0.0182 -0.090788,-0.0182 -0.051447,0 -0.092301,0.0197 -0.040855,0.0182 -0.069604,0.0499 -0.027236,0.0318 -0.042368,0.0741 -0.013618,0.0424 -0.013618,0.0893 0,0.0817 0.039341,0.15585 0.039341,0.0726 0.1074327,0.15737 l 0.00303,0.006 q 0.057499,-0.0348 0.1089458,-0.0696 0.051447,-0.0363 0.089275,-0.0772 0.039341,-0.0408 0.060525,-0.0878 0.022697,-0.0484 0.022697,-0.10592 z"
         style="font-style:normal;font-variant:normal;font-weight:bold;font-stretch:normal;line-height:1;font-family:Consolas;-inkscape-font-specification:'Consolas Bold';text-align:center;text-anchor:middle;fill:#ffffff;stroke-width:0.23241773"
         id="path4543"
         inkscape:connector-curvature="0" />
      <path
         d="m 8.6083589,291.79174 q 0.3707184,0.30868 0.5522947,0.6673 0.1815764,0.3571 0.1815764,0.77018 0,0.23 -0.054473,0.43427 -0.054473,0.20428 -0.1528268,0.38585 -0.096841,0.18158 -0.2330229,0.33895 -0.1361823,0.15887 -0.299601,0.29506 l -0.2118391,-0.21033 q 0.2965747,-0.2648 0.4448621,-0.57348 0.1482873,-0.30868 0.1482873,-0.64762 0,-0.34197 -0.1482873,-0.65973 -0.1482874,-0.31776 -0.4448621,-0.58104 z"
         style="font-style:normal;font-variant:normal;font-weight:bold;font-stretch:normal;line-height:1;font-family:Consolas;-inkscape-font-specification:'Consolas Bold';text-align:center;text-anchor:middle;fill:#ffffff;stroke-width:0.23241773"
         id="path4545"
         inkscape:connector-curvature="0" />
    </g>
  </g>
</svg>
